<?xml version="1.0" encoding="UTF-8"?>
<svg width="20" height="20" viewBox="0 0 20 20" fill="none" xmlns="http://www.w3.org/2000/svg">
    <path d="M10 0C4.48 0 0 4.48 0 10C0 15.52 4.48 20 10 20C15.52 20 20 15.52 20 10C20 4.48 15.52 0 10 0ZM10.8 14.4H9.2V12.8H10.8V14.4ZM12.07 8.86C11.88 9.22 11.63 9.5 11.33 9.72C11.03 9.94 10.77 10.12 10.57 10.26C10.37 10.4 10.22 10.54 10.13 10.69C10.04 10.84 10 11.02 10 11.24V11.6H8.4V11.17C8.4 10.81 8.47 10.5 8.61 10.24C8.75 9.98 8.92 9.75 9.13 9.56C9.34 9.37 9.56 9.19 9.79 9.04C10.02 8.89 10.22 8.73 10.38 8.57C10.54 8.41 10.67 8.23 10.76 8.04C10.85 7.85 10.9 7.63 10.9 7.38C10.9 6.92 10.75 6.56 10.45 6.31C10.15 6.06 9.76 5.93 9.27 5.93C8.86 5.93 8.5 6.02 8.19 6.19C7.88 6.36 7.61 6.63 7.39 6.99L6 6.18C6.34 5.62 6.81 5.17 7.41 4.84C8.01 4.51 8.69 4.35 9.45 4.35C10.46 4.35 11.28 4.61 11.91 5.13C12.54 5.65 12.85 6.33 12.85 7.18C12.85 7.73 12.59 8.27 12.07 8.86Z" fill="#1A1A1A"/>
</svg>
