<?xml version="1.0" encoding="UTF-8"?>
<svg width="800" height="800" viewBox="0 0 800 800" fill="none" xmlns="http://www.w3.org/2000/svg">
  <g opacity="0.15">
    <!-- Vertical Lines -->
    <line x1="200" y1="0" x2="200" y2="800" stroke="#15A1EA" stroke-width="2"/>
    <line x1="400" y1="0" x2="400" y2="800" stroke="#15A1EA" stroke-width="2"/>
    <line x1="600" y1="0" x2="600" y2="800" stroke="#15A1EA" stroke-width="2"/>
    
    <!-- Diagonal Lines (45 degrees) -->
    <line x1="0" y1="0" x2="800" y2="800" stroke="#15A1EA" stroke-width="2"/>
    <line x1="200" y1="0" x2="800" y2="600" stroke="#15A1EA" stroke-width="2"/>
    <line x1="0" y1="200" x2="600" y2="800" stroke="#15A1EA" stroke-width="2"/>
    
    <!-- Diagonal Lines (-45 degrees) -->
    <line x1="800" y1="0" x2="0" y2="800" stroke="#15A1EA" stroke-width="2"/>
    <line x1="600" y1="0" x2="0" y2="600" stroke="#15A1EA" stroke-width="2"/>
    <line x1="800" y1="200" x2="200" y2="800" stroke="#15A1EA" stroke-width="2"/>
    
    <!-- Connection Dots -->
    <circle cx="200" cy="200" r="6" fill="#15A1EA"/>
    <circle cx="400" cy="200" r="6" fill="#15A1EA"/>
    <circle cx="600" cy="200" r="6" fill="#15A1EA"/>
    <circle cx="200" cy="400" r="6" fill="#15A1EA"/>
    <circle cx="400" cy="400" r="6" fill="#15A1EA"/>
    <circle cx="600" cy="400" r="6" fill="#15A1EA"/>
    <circle cx="200" cy="600" r="6" fill="#15A1EA"/>
    <circle cx="400" cy="600" r="6" fill="#15A1EA"/>
    <circle cx="600" cy="600" r="6" fill="#15A1EA"/>
  </g>
</svg>
