<?xml version="1.0" encoding="UTF-8"?>
<svg version="1.1" xmlns="http://www.w3.org/2000/svg" width="998" height="233">
<path d="M0 0 C329.34 0 658.68 0 998 0 C998 76.89 998 153.78 998 233 C668.66 233 339.32 233 0 233 C0 156.11 0 79.22 0 0 Z " fill="#FEFEFE" transform="translate(0,0)"/>
<path d="M0 0 C0.98887207 0.57596924 1.97774414 1.15193848 2.99658203 1.74536133 C4.11677734 2.39182617 5.23697266 3.03829102 6.39111328 3.7043457 C7.59564255 4.41185406 8.80006697 5.11954094 10.00439453 5.82739258 C11.26303813 6.55802224 12.5221599 7.28782875 13.78173828 8.0168457 C16.97173917 9.86611937 20.15540824 11.72597532 23.33679199 13.59002686 C25.99724297 15.14816159 28.66107916 16.70047792 31.32470703 18.25317383 C34.21654705 19.93961835 37.10769203 21.62718119 39.99633789 23.3190918 C45.58433238 26.58876748 51.18925195 29.82674445 56.81298828 33.03442383 C57.45974518 33.40332733 58.10650208 33.77223083 58.77285767 34.15231323 C61.94926867 35.96299139 65.12732306 37.77073027 68.30712891 39.57543945 C69.4434375 40.2219043 70.57974609 40.86836914 71.75048828 41.53442383 C72.76554443 42.11039307 73.78060059 42.6863623 74.82641602 43.27978516 C77.12939453 44.63989258 77.12939453 44.63989258 78.12939453 45.63989258 C78.35259372 48.60779504 78.50994286 51.55448856 78.6237793 54.52734375 C78.66247635 55.46085159 78.7011734 56.39435944 78.74104309 57.3561554 C79.08163005 66.01133704 79.2896721 74.6693499 79.45501804 83.32949352 C79.56876356 89.14715186 79.72740755 94.95576764 79.99487305 100.76855469 C81.7330289 139.51049015 81.7330289 139.51049015 75.88037109 147.05569458 C70.41738046 152.11696316 64.36645466 154.56166924 57.29127502 156.60101318 C51.94214185 158.35854458 47.30682603 161.31293993 42.50439453 164.20239258 C40.61023469 165.27537085 38.71344542 166.34373298 36.81298828 167.40551758 C31.02207121 170.68380954 25.28945391 174.05650148 19.56689453 177.45239258 C6.49881636 185.20483846 6.49881636 185.20483846 0.87939453 188.45239258 C-0.19826172 189.07758789 -1.27591797 189.7027832 -2.38623047 190.34692383 C-4.87060547 191.63989258 -4.87060547 191.63989258 -6.87060547 191.63989258 C-7.36560547 144.11989258 -7.36560547 144.11989258 -7.87060547 95.63989258 C-21.53657099 103.37401612 -21.53657099 103.37401612 -34.87060547 111.63989258 C-35.33156755 113.60413011 -35.33156755 113.60413011 -35.26933289 115.90457153 C-35.28187103 116.79922119 -35.29440918 117.69387085 -35.30732727 118.6156311 C-35.30589218 119.59961884 -35.30445709 120.58360657 -35.30297852 121.59741211 C-35.31317017 122.63158264 -35.32336182 123.66575317 -35.3338623 124.73126221 C-35.36414303 128.16179719 -35.37328134 131.59205367 -35.38232422 135.02270508 C-35.3991597 137.39640238 -35.41730839 139.7700907 -35.4367218 142.14376831 C-35.48435053 148.40074865 -35.5140766 154.65769261 -35.54016113 160.91479492 C-35.56990181 167.29589018 -35.61645432 173.67685991 -35.66162109 180.05786133 C-35.74780062 192.58513698 -35.81565118 205.11244305 -35.87060547 217.63989258 C-39.66976987 216.94960135 -42.36819785 215.9929782 -45.69482422 214.00708008 C-46.62931396 213.4549585 -47.56380371 212.90283691 -48.52661133 212.33398438 C-49.52700439 211.73368408 -50.52739746 211.13338379 -51.55810547 210.51489258 C-53.69824587 209.24714706 -55.83888996 207.98025155 -57.97998047 206.71411133 C-59.65737305 205.71903564 -59.65737305 205.71903564 -61.36865234 204.70385742 C-64.96328648 202.57882406 -68.57826647 200.49007485 -72.19873047 198.40942383 C-73.09462639 197.89448364 -73.09462639 197.89448364 -74.00862122 197.36914062 C-76.92285638 195.69521337 -79.83834506 194.02348622 -82.75415039 192.35229492 C-83.8019165 191.74981934 -84.84968262 191.14734375 -85.92919922 190.52661133 C-86.86046631 189.99253662 -87.7917334 189.45846191 -88.7512207 188.90820312 C-90.87060547 187.63989258 -90.87060547 187.63989258 -91.87060547 186.63989258 C-92.01938863 184.85062575 -92.09917077 183.05559462 -92.15235901 181.26094055 C-92.18841751 180.0934024 -92.22447601 178.92586426 -92.2616272 177.72294617 C-92.295737 176.43008194 -92.3298468 175.13721771 -92.36499023 173.80517578 C-92.40397473 172.43859568 -92.44306515 171.07201859 -92.48225403 169.70544434 C-92.82923193 157.18269714 -93.03281223 144.65712672 -93.19622898 132.13078022 C-93.30871002 123.71172774 -93.46600733 115.29841388 -93.73608398 106.8828125 C-93.97173033 99.53846598 -94.12125916 92.19816412 -94.16939968 84.85010785 C-94.19769073 80.9626149 -94.26667405 77.08618275 -94.43869209 73.20217323 C-95.43680881 49.71643242 -95.43680881 49.71643242 -89.57310104 43.01360703 C-83.89861073 38.48336309 -77.67049668 35.59171213 -70.95432854 32.93301964 C-66.06454989 30.88254203 -61.60090024 28.16768327 -57.05810547 25.45239258 C-55.33751135 24.46701224 -53.61510806 23.48477758 -51.89013672 22.50708008 C-47.78950699 20.16816133 -43.69778786 17.81435719 -39.61279297 15.44824219 C-38.05019217 14.54333259 -36.48641135 13.64045722 -34.92138672 12.73974609 C-30.80622918 10.36651604 -26.72443933 7.94992082 -22.67138672 5.47192383 C-21.81561035 4.95637939 -20.95983398 4.44083496 -20.078125 3.90966797 C-18.43923157 2.92128281 -16.80814405 1.91979632 -15.18652344 0.90332031 C-14.4467627 0.46060791 -13.70700195 0.01789551 -12.94482422 -0.43823242 C-12.3011792 -0.83429687 -11.65753418 -1.23036133 -10.99438477 -1.63842773 C-6.97328595 -3.004834 -3.71769386 -1.7614622 0 0 Z " fill="#233F6E" transform="translate(95.87060546875,9.360107421875)"/>
<path d="M0 0 C2.14188963 1.90538931 3.42311427 3.57835407 5 6 C5.4125 5.61328125 5.825 5.2265625 6.25 4.828125 C14.3976262 -2.51928792 22.1057169 -5.43198873 33.09375 -5.26953125 C40.85871775 -4.54939311 47.01115941 -1.2139948 52.1819458 4.59111023 C58.19800029 12.56227639 58.56068193 21.70194135 58.390625 31.32421875 C58.38496521 32.55163284 58.37930542 33.77904694 58.37347412 35.0436554 C58.35126322 38.92535064 58.3010934 42.80608848 58.25 46.6875 C58.22991534 49.33527303 58.21166804 51.98306068 58.1953125 54.63085938 C58.15144823 61.08760283 58.08252562 67.54363966 58 74 C51.07 74 44.14 74 37 74 C36.9906543 72.45094971 36.98130859 70.90189941 36.97167969 69.3059082 C36.93179458 63.55626719 36.86603876 57.80716206 36.79248047 52.05786133 C36.76426248 49.56997565 36.74305213 47.08200018 36.72900391 44.59399414 C36.70758679 41.01662193 36.6609398 37.44033027 36.609375 33.86328125 C36.60814636 32.75165115 36.60691772 31.64002106 36.60565186 30.4947052 C36.51027548 24.37062246 36.51027548 24.37062246 34.14941406 18.82104492 C30.07761595 15.37130138 25.77298591 15.66763751 20.66796875 15.71484375 C17.04094863 16.10250476 15.36245685 17.25650172 13 20 C11.13077309 23.09857658 10.73568605 25.4447204 10.68115234 29.04394531 C10.66128265 30.04468079 10.64141296 31.04541626 10.62094116 32.07647705 C10.60938995 33.14952087 10.59783875 34.2225647 10.5859375 35.328125 C10.56657135 36.43226746 10.5472052 37.53640991 10.5272522 38.67401123 C10.46749108 42.19926233 10.42108436 45.72454615 10.375 49.25 C10.33681708 51.64063921 10.29776517 54.03126471 10.2578125 56.421875 C10.16179216 62.2811386 10.07774785 68.1404666 10 74 C3.07 74 -3.86 74 -11 74 C-11.0093457 72.48647949 -11.01869141 70.97295898 -11.02832031 69.41357422 C-11.06824506 63.78876505 -11.13401201 58.16450137 -11.20751953 52.54003906 C-11.23571451 50.10749325 -11.25693632 47.67485608 -11.27099609 45.2421875 C-11.29244508 41.74171218 -11.33910843 38.24233369 -11.390625 34.7421875 C-11.39185364 33.65759247 -11.39308228 32.57299744 -11.39434814 31.45553589 C-11.51141972 25.3960952 -11.80964028 21.53971502 -16 17 C-20.63386639 15.45537787 -25.16597554 15.36557739 -30 16 C-33.17739189 17.64708129 -35.37781742 19.75563484 -37 23 C-37.11872573 24.63335192 -37.17709092 26.27127354 -37.20532227 27.90869141 C-37.22526749 28.92959869 -37.24521271 29.95050598 -37.26576233 31.00234985 C-37.29083107 32.66021011 -37.29083107 32.66021011 -37.31640625 34.3515625 C-37.33718735 35.4807309 -37.35796844 36.60989929 -37.37937927 37.77328491 C-37.44491335 41.39045972 -37.50377774 45.00770881 -37.5625 48.625 C-37.60568154 51.07292444 -37.64929571 53.52084128 -37.69335938 55.96875 C-37.80059871 61.97908999 -37.9018553 67.9895049 -38 74 C-45.26 74 -52.52 74 -60 74 C-60 48.59 -60 23.18 -60 -3 C-53.4 -3 -46.8 -3 -40 -3 C-39.34 -0.69 -38.68 1.62 -38 4 C-37.41605469 3.40251953 -37.41605469 3.40251953 -36.8203125 2.79296875 C-25.99493263 -7.45871588 -12.49720504 -7.02967783 0 0 Z " fill="#131627" transform="translate(597,85)"/>
<path d="M0 0 C58.86852974 0 58.86852974 0 69.24609375 9.8359375 C76.35165388 18.60315424 78.80501313 27.9786384 78 39 C76.23968231 48.43918385 71.91154869 56.37409008 64.36328125 62.390625 C51.23304458 71.33220765 37.36332307 69.37840697 22 69 C22 82.53 22 96.06 22 110 C14.74 110 7.48 110 0 110 C0 73.7 0 37.4 0 0 Z " fill="#101325" transform="translate(229,49)"/>
<path d="M0 0 C9.04024524 5.79029836 15.41807483 13.83399847 17.875 24.375 C19.43416829 37.8410645 18.45222892 50.59838972 10.1875 61.75 C4.08971801 68.79808568 -4.0401037 74.52128385 -13.49755859 75.66088867 C-16.02616851 75.77623492 -18.53165783 75.78469548 -21.0625 75.75 C-21.90490234 75.76160156 -22.74730469 75.77320313 -23.61523438 75.78515625 C-34.43648964 75.73517355 -43.1158971 71.87731109 -51.0703125 64.59375 C-59.85390019 55.31584785 -62.5198298 44.60195916 -62.40234375 32.1484375 C-61.70372315 22.6432614 -58.70668472 14.31085609 -52.125 7.375 C-51.48820312 6.68664062 -50.85140625 5.99828125 -50.1953125 5.2890625 C-36.32556468 -8.37746557 -16.55820414 -9.04545295 0 0 Z " fill="#111425" transform="translate(373.125,85.625)"/>
<path d="M0 0 C8.55999785 5.93363487 13.05098189 13.74204231 15.6875 23.6796875 C15.6875 29.6196875 15.6875 35.5596875 15.6875 41.6796875 C-2.1325 41.6796875 -19.9525 41.6796875 -38.3125 41.6796875 C-35.78301908 50.52902147 -35.78301908 50.52902147 -29.89453125 55.6484375 C-23.64302437 58.14525719 -16.4187486 57.75199199 -10.1328125 55.58203125 C-6.41502409 53.07432632 -5.27381909 50.67776103 -3.3125 46.6796875 C-0.49583639 47.26811033 2.31476432 47.87442986 5.125 48.4921875 C5.92744141 48.65783203 6.72988281 48.82347656 7.55664062 48.99414062 C9.62499958 49.45668503 11.66083737 50.05944991 13.6875 50.6796875 C14.6875 53.6796875 14.6875 53.6796875 14.12109375 55.4765625 C9.25212115 65.0235676 3.24081356 71.34946767 -7.08447266 75.08789062 C-16.51709732 77.59333465 -29.46076799 77.48878635 -38.25 73 C-39.2709375 72.34644531 -39.2709375 72.34644531 -40.3125 71.6796875 C-41.09625 71.18210937 -41.88 70.68453125 -42.6875 70.171875 C-51.38317805 64.02197112 -57.11861355 55.1161417 -59.3125 44.6796875 C-60.59148247 32.05527398 -59.66961718 20.40011023 -52.10546875 9.84765625 C-38.89585605 -6.12475126 -18.40144374 -10.50622971 0 0 Z " fill="#121526" transform="translate(729.3125,85.3203125)"/>
<path d="M0 0 C3.17839575 1.5565841 6.20921138 3.31643391 9.25 5.125 C11.11973818 6.21623748 12.98953254 7.30737871 14.859375 8.3984375 C16.3453418 9.27193848 16.3453418 9.27193848 17.86132812 10.16308594 C21.13187637 12.07718091 24.41532082 13.96727404 27.703125 15.8515625 C28.83331055 16.4997998 29.96349609 17.14803711 31.12792969 17.81591797 C33.31069145 19.06786111 35.49362305 20.3195082 37.67675781 21.57080078 C39.68236511 22.72628042 41.67822348 23.8989266 43.66168213 25.09202576 C46.95241876 27.04378792 46.95241876 27.04378792 50.38293457 28.52256775 C59.23347859 32.88579466 59.23347859 32.88579466 61.26818848 38.49789429 C61.9833181 42.8435878 61.97039335 47.18917332 61.9375 51.58203125 C61.96154059 53.20338924 61.98852924 54.82470592 62.01831055 56.44596863 C62.06441944 59.83724722 62.06081377 63.22412186 62.02441406 66.61547852 C61.9919969 70.08012399 62.03352634 73.53049941 62.14746094 76.9934082 C63.05839502 104.80264353 63.05839502 104.80264353 58.04785156 111.67913818 C53.42914523 115.73978237 46.41521085 120 40 120 C40.0407666 119.116539 40.0815332 118.233078 40.12353516 117.32284546 C40.48854251 108.93931833 40.73470071 100.56210089 40.8523407 92.17131615 C40.91688902 87.8574415 41.02490524 83.55442168 41.23779297 79.24511719 C42.8384626 60.7508393 42.8384626 60.7508393 36.70855713 44.10900879 C31.08752747 39.43048886 24.863104 36.67810503 18.03689575 34.19561768 C13.31772261 32.33769192 9.15017716 29.69933558 4.875 27 C2.23680056 25.3645214 -0.09335982 24.18487243 -3 23 C-7.0848309 24.02283481 -10.49336601 25.69292071 -14.09765625 27.8359375 C-15.53189941 28.68176392 -15.53189941 28.68176392 -16.99511719 29.54467773 C-18.00735352 30.14868408 -19.01958984 30.75269043 -20.0625 31.375 C-22.2143503 32.64536747 -24.3667039 33.91488275 -26.51953125 35.18359375 C-28.1430249 36.14241455 -28.1430249 36.14241455 -29.79931641 37.12060547 C-34.59233158 39.93499378 -39.41859184 42.68970014 -44.25 45.4375 C-50.86950746 49.20469937 -57.4649361 53.00462311 -64.015625 56.890625 C-66 58 -66 58 -67 58 C-67 50.08 -67 42.16 -67 34 C-65.39253906 33.10539062 -63.78507812 32.21078125 -62.12890625 31.2890625 C-47.55667487 23.17374986 -47.55667487 23.17374986 -33.125 14.8125 C-32.46918945 14.42682861 -31.81337891 14.04115723 -31.13769531 13.64379883 C-27.38644053 11.43228618 -23.66191451 9.18193142 -19.94921875 6.90625 C-18.23712003 5.87476615 -16.52488309 4.84351169 -14.8125 3.8125 C-14.02182129 3.31790283 -13.23114258 2.82330566 -12.41650391 2.3137207 C-7.91328343 -0.37533971 -5.19778377 -1.9248567 0 0 Z " fill="#FBFDFD" transform="translate(93,32)"/>
<path d="M0 0 C7.59 0 15.18 0 23 0 C25.06384876 4.39209605 27.12711434 8.78445701 29.18896484 13.17749023 C29.88882959 14.66820537 30.58901779 16.1587687 31.28955078 17.64916992 C33.25584839 21.8328117 35.21679666 26.0188556 37.16674805 30.21014404 C37.90096411 31.78726725 38.63868628 33.36275721 39.37695312 34.93798828 C42 40.64554398 42 40.64554398 42 44 C42.66 44 43.32 44 44 44 C44.52207031 42.31390625 44.52207031 42.31390625 45.0546875 40.59375 C47.40524438 33.54484147 50.31202461 26.7114073 53.15283203 19.84960938 C54.13344896 17.47957991 55.10803002 15.10712987 56.08203125 12.734375 C56.70277099 11.22902064 57.32385211 9.72380699 57.9453125 8.21875 C58.23697296 7.50843628 58.52863342 6.79812256 58.82913208 6.06628418 C60.88478044 1.11521956 60.88478044 1.11521956 62 0 C63.63472882 -0.08700342 65.27314055 -0.10701063 66.91015625 -0.09765625 C67.89951172 -0.09443359 68.88886719 -0.09121094 69.90820312 -0.08789062 C70.94912109 -0.07951172 71.99003906 -0.07113281 73.0625 -0.0625 C74.62967773 -0.05573242 74.62967773 -0.05573242 76.22851562 -0.04882812 C78.8190666 -0.03699913 81.40950559 -0.02051689 84 0 C81.6170259 7.99102594 78.1821029 15.43118091 74.68014526 22.97610474 C72.86414558 26.88968253 71.0644847 30.81078232 69.26171875 34.73046875 C68.89782547 35.52045761 68.53393219 36.31044647 68.15901184 37.12437439 C64.87734962 44.25212098 61.64436261 51.40074206 58.4375 58.5625 C57.67252197 60.26986328 57.67252197 60.26986328 56.89208984 62.01171875 C53.8701843 68.77265597 50.8754754 75.54514615 47.89453125 82.32421875 C47.5487352 83.11014908 47.20293915 83.89607941 46.84666443 84.70582581 C45.14741078 88.56870268 43.45097197 92.43277202 41.75952148 96.29907227 C41.14703834 97.69420201 40.53449275 99.08930435 39.921875 100.484375 C39.64024002 101.13077438 39.35860504 101.77717377 39.06843567 102.44316101 C37.11331054 106.88668946 37.11331054 106.88668946 36 108 C34.36527118 108.08700342 32.72685945 108.10701063 31.08984375 108.09765625 C30.10048828 108.09443359 29.11113281 108.09121094 28.09179688 108.08789062 C27.05087891 108.07951172 26.00996094 108.07113281 24.9375 108.0625 C23.89271484 108.05798828 22.84792969 108.05347656 21.77148438 108.04882812 C19.1809334 108.03699913 16.59049441 108.02051689 14 108 C15.6735726 102.32983613 17.82651622 97.05666423 20.390625 91.734375 C20.70084595 91.0885144 21.01106689 90.44265381 21.33068848 89.77722168 C22.63073866 87.08025094 23.93676719 84.3864721 25.25878906 81.70019531 C26.23170065 79.71728166 27.18722454 77.726727 28.140625 75.734375 C28.71329102 74.56100586 29.28595703 73.38763672 29.87597656 72.17871094 C31.47487641 67.65706107 30.66351526 65.50303277 28.77587891 61.22705078 C28.26460449 60.22657715 27.75333008 59.22610352 27.2265625 58.1953125 C26.65413818 57.06528809 26.08171387 55.93526367 25.49194336 54.77099609 C25.18739227 54.17631531 24.88284119 53.58163452 24.56906128 52.96893311 C22.96436655 49.83465592 21.37942293 46.6904134 19.79296875 43.546875 C19.47205765 42.91208221 19.15114655 42.27728943 18.82051086 41.6232605 C15.31834382 34.67993108 11.96907995 27.66542138 8.64111328 20.63720703 C8.23231934 19.77466309 7.82352539 18.91211914 7.40234375 18.0234375 C7.01159668 17.19682617 6.62084961 16.37021484 6.21826172 15.51855469 C4.52322481 12.01434611 2.72840131 8.56272544 0.92016602 5.11572266 C0 3 0 3 0 0 Z " fill="#121526" transform="translate(441,82)"/>
<path d="M0 0 C7.78565478 4.80224421 13.72150859 11.00046326 16.63671875 19.74609375 C16.63671875 20.73609375 16.63671875 21.72609375 16.63671875 22.74609375 C14.03413551 23.58467063 11.42986228 24.41712719 8.82421875 25.24609375 C8.08623047 25.48457031 7.34824219 25.72304687 6.58789062 25.96875 C3.50416679 26.94549511 0.89176066 27.74609375 -2.36328125 27.74609375 C-4.00338531 25.56825065 -5.29914648 23.26632572 -6.66796875 20.91015625 C-8.74111454 18.26379042 -10.14126235 17.63167789 -13.36328125 16.74609375 C-19.32643047 16.04741414 -25.78078223 15.67089835 -30.89453125 19.23046875 C-35.32673433 23.80412512 -37.63619498 29.47979802 -37.86328125 35.80859375 C-37.5100902 41.57738088 -36.66636167 47.20844032 -32.67578125 51.60546875 C-27.18262496 56.41198051 -23.64361991 57.03948256 -16.34765625 56.9609375 C-11.23078534 56.59257637 -8.49780701 55.00667793 -5.11328125 51.24609375 C-3.84081352 49.42828271 -2.59411725 47.59234775 -1.36328125 45.74609375 C4.80894754 46.98637613 10.70353997 48.64212964 16.63671875 50.74609375 C16.28780066 57.54999652 12.52617272 62.81218664 7.859375 67.55078125 C-2.82122405 76.94596904 -13.3878811 77.56839024 -27.07910156 76.93701172 C-36.30364724 76.16599903 -44.00423643 70.50318052 -50.1171875 63.83203125 C-58.33546599 53.49224227 -60.31861316 42.74398981 -59.36328125 29.74609375 C-57.77685877 21.56921904 -55.11844276 14.81095005 -49.36328125 8.74609375 C-48.72648438 8.05773437 -48.0896875 7.369375 -47.43359375 6.66015625 C-34.81499569 -5.77355393 -15.63999653 -8.29824609 0 0 Z " fill="#111426" transform="translate(976.36328125,84.25390625)"/>
<path d="M0 0 C6.27 0 12.54 0 19 0 C19 7.59 19 15.18 19 23 C24.28 23 29.56 23 35 23 C35 28.94 35 34.88 35 41 C29.72 41 24.44 41 19 41 C19.05106137 46.05507565 19.1139973 51.10707566 19.20751953 56.16113281 C19.23572067 57.87978169 19.25693954 59.59856005 19.27099609 61.31738281 C19.29243833 63.79038747 19.33909156 66.26183675 19.390625 68.734375 C19.39185364 69.50118591 19.39308228 70.26799683 19.39434814 71.05804443 C19.49106691 74.5917865 19.71484861 76.62345774 21.87695312 79.47851562 C25.63908938 82.17465559 29.46501283 81.76131646 34 82 C34 87.61 34 93.22 34 99 C28.10422905 101.94788548 17.23639889 100.93486652 10.984375 99.12890625 C5.56271803 96.31665221 1.2736206 91.9982157 -0.61790466 86.0602417 C-1.02624984 83.85846199 -1.12011059 81.83760128 -1.11352539 79.59863281 C-1.11344986 78.7380426 -1.11337433 77.87745239 -1.11329651 76.99078369 C-1.10813522 76.07085632 -1.10297394 75.15092896 -1.09765625 74.203125 C-1.0962413 73.25435486 -1.09482635 72.30558472 -1.09336853 71.32806396 C-1.08777742 68.30201038 -1.07522652 65.27603117 -1.0625 62.25 C-1.05748385 60.19661565 -1.05292115 58.14323014 -1.04882812 56.08984375 C-1.03781089 51.05986724 -1.02055233 46.02994622 -1 41 C-5.95 41 -10.9 41 -16 41 C-16 34.73 -16 28.46 -16 22 C-14.081875 21.773125 -12.16375 21.54625 -10.1875 21.3125 C-5.56752752 20.80857976 -5.56752752 20.80857976 -2.15625 17.90625 C-0.73279911 14.32838694 -0.44071007 10.98608652 -0.3125 7.1875 C-0.209375 4.815625 -0.10625 2.44375 0 0 Z " fill="#101325" transform="translate(768,60)"/>
<path d="M0 0 C6.93 0 13.86 0 21 0 C21 37.29 21 74.58 21 113 C14.07 113 7.14 113 0 113 C0 75.71 0 38.42 0 0 Z " fill="#111426" transform="translate(408,46)"/>
<path d="M0 0 C0 6.93 0 13.86 0 21 C-3.2484375 21.12375 -3.2484375 21.12375 -6.5625 21.25 C-12.59882989 21.70683627 -16.35918506 22.06539603 -21 26 C-25.02749559 31.78693797 -25.5999638 37.29912081 -25.609375 44.1875 C-25.62591125 45.13061035 -25.64244751 46.0737207 -25.65948486 47.04541016 C-25.70771079 50.03034136 -25.72927923 53.01476406 -25.75 56 C-25.77818093 58.03518148 -25.80811131 60.07033954 -25.83984375 62.10546875 C-25.9167275 67.07054069 -25.95748323 72.03404171 -26 77 C-32.93 77 -39.86 77 -47 77 C-47 51.92 -47 26.84 -47 1 C-40.4 1 -33.8 1 -27 1 C-26.67 3.64 -26.34 6.28 -26 9 C-25.48050781 8.51789063 -24.96101562 8.03578125 -24.42578125 7.5390625 C-23.72839844 6.90742187 -23.03101563 6.27578125 -22.3125 5.625 C-21.62800781 4.99851562 -20.94351563 4.37203125 -20.23828125 3.7265625 C-13.95096949 -1.12333592 -7.63856898 -0.15431452 0 0 Z " fill="#101325" transform="translate(866,82)"/>
<path d="M0 0 C6.93 0 13.86 0 21 0 C21 25.08 21 50.16 21 76 C14.07 76 7.14 76 0 76 C0 50.92 0 25.84 0 0 Z " fill="#0D1023" transform="translate(880,83)"/>
<path d="M0 0 C5.81639879 3.14980365 8.60846714 7.29528349 10.625 13.5 C11.37123046 23.44973946 10.06115873 29.85540095 3.5078125 37.5546875 C-0.92632746 41.33494507 -5.8246261 41.4398139 -11.40234375 41.3046875 C-16.56649805 40.73974495 -20.38358936 39.154796 -23.75390625 35.12890625 C-28.19781998 28.43138385 -28.88176032 21.92200618 -28.1875 14 C-26.80107082 8.70914159 -23.99556726 3.91373849 -19.43359375 0.8046875 C-12.60803344 -3.01548911 -7.08159839 -3.09492078 0 0 Z " fill="#FBFBFB" transform="translate(360.1875,101)"/>
<path d="M0 0 C3.465 -0.0825 6.93 -0.165 10.5 -0.25 C12.11358398 -0.30462402 12.11358398 -0.30462402 13.75976562 -0.36035156 C19.97092911 -0.43140177 24.9086021 0.22914434 30 4 C33.65093801 8.18505204 34.65848084 12.3491644 34.38671875 17.859375 C33.54655266 22.50999133 30.83463529 25.24679254 27.4375 28.3125 C23.83865164 30.80401041 21.16056122 31.12231538 16.89453125 31.09765625 C15.56578979 31.09390991 15.56578979 31.09390991 14.21020508 31.09008789 C13.0889624 31.08098389 11.96771973 31.07187988 10.8125 31.0625 C7.244375 31.041875 3.67625 31.02125 0 31 C0 20.77 0 10.54 0 0 Z " fill="#FCFCFC" transform="translate(251,68)"/>
<path d="M0 0 C4.1379219 2.06896095 6.27242495 3.75109921 8 8 C8.73651586 12.71027588 8.42246633 16.17015542 6.25 20.4375 C3.55382446 23.50814437 1.65255719 24.7689107 -2.40234375 25.3359375 C-6.64465711 25.40130442 -9.26810834 25.4269368 -13 23.25 C-16.70767415 19.07886658 -17.44145407 15.72789368 -17.32421875 10.25390625 C-16.82304045 6.76981134 -15.25055134 4.63636014 -13 2 C-8.74347138 -0.83768574 -4.99717834 -0.63727624 0 0 Z " fill="#111425" transform="translate(895,45)"/>
<path d="M0 0 C0.98887207 0.57596924 1.97774414 1.15193848 2.99658203 1.74536133 C4.68025879 2.71699219 4.68025879 2.71699219 6.39794922 3.70825195 C7.60021972 4.41442439 8.80236554 5.12080914 10.00439453 5.82739258 C11.24253652 6.54629261 12.48114923 7.26438251 13.72021484 7.98168945 C16.90040007 9.82564815 20.0741174 11.68044184 23.24621582 13.53826904 C26.26367196 15.30342318 29.28657496 17.05918774 32.30908203 18.81567383 C37.92173312 22.08040802 43.5281398 25.35564772 49.12939453 28.63989258 C46.12939453 29.63989258 46.12939453 29.63989258 43.12939453 29.63989258 C42.40751953 28.89739258 41.68564453 28.15489258 40.94189453 27.38989258 C38.14380128 24.65397918 35.98992887 23.42355419 32.51611328 21.81567383 C28.49209664 19.83330229 24.69984739 17.44870279 20.86376953 15.12817383 C18.53544685 13.86090105 16.71429241 13.10148148 14.12939453 12.63989258 C14.12939453 11.97989258 14.12939453 11.31989258 14.12939453 10.63989258 C13.07751953 10.26864258 13.07751953 10.26864258 12.00439453 9.88989258 C9.12939453 8.63989258 9.12939453 8.63989258 6.06689453 6.57739258 C3.56925363 4.93001241 2.02481208 4.08534143 -0.87060547 3.63989258 C-0.87060547 2.97989258 -0.87060547 2.31989258 -0.87060547 1.63989258 C-3.21594497 0.87033122 -3.21594497 0.87033122 -5.87060547 0.63989258 C-7.70608536 1.97367832 -7.70608536 1.97367832 -8.87060547 3.63989258 C-8.87060547 2.97989258 -8.87060547 2.31989258 -8.87060547 1.63989258 C-11.12316588 2.73906978 -13.3725872 3.84399468 -15.62060547 4.95239258 C-16.57193359 5.41548828 -16.57193359 5.41548828 -17.54248047 5.88793945 C-21.71099443 7.95048542 -25.19242107 10.24140558 -28.74560547 13.20239258 C-30.87060547 14.63989258 -30.87060547 14.63989258 -33.68310547 15.51489258 C-37.10599933 16.72297276 -39.41544875 18.31716197 -42.25732422 20.51879883 C-43.87060547 21.63989258 -43.87060547 21.63989258 -46.87060547 22.63989258 C-48.24256121 23.93345085 -49.58243203 25.2628796 -50.87060547 26.63989258 C-51.86060547 26.30989258 -52.85060547 25.97989258 -53.87060547 25.63989258 C-53.87060547 26.62989258 -53.87060547 27.61989258 -53.87060547 28.63989258 C-54.40685547 28.74301758 -54.94310547 28.84614258 -55.49560547 28.95239258 C-61.20912484 30.60630608 -66.18245633 34.01098101 -71.22998047 37.06958008 C-72.01888672 37.5465332 -72.80779297 38.02348633 -73.62060547 38.51489258 C-74.48041016 39.05114258 -75.34021484 39.58739258 -76.22607422 40.13989258 C-78.87060547 41.63989258 -78.87060547 41.63989258 -81.48388672 42.57739258 C-84.29810641 43.65460586 -85.87330475 44.35661471 -87.87060547 46.63989258 C-88.95672336 52.02160672 -89.03137901 57.1671612 -88.87060547 62.63989258 C-89.53060547 62.63989258 -90.19060547 62.63989258 -90.87060547 62.63989258 C-90.87060547 103.55989258 -90.87060547 144.47989258 -90.87060547 186.63989258 C-91.20060547 186.63989258 -91.53060547 186.63989258 -91.87060547 186.63989258 C-92.43287192 168.49908906 -92.85521237 150.36056295 -93.1140976 132.21291161 C-93.23754042 123.78488268 -93.40555641 115.3622841 -93.68115234 106.93774414 C-93.9214485 99.58871835 -94.07543145 92.24362299 -94.12872934 84.89077818 C-94.15987425 80.99980918 -94.23213701 77.12007393 -94.40812683 73.23273849 C-95.43173512 49.71576815 -95.43173512 49.71576815 -89.574646 43.01206207 C-83.90076715 38.47984138 -77.67231505 35.58964154 -70.95489502 32.93245316 C-66.06444448 30.88296867 -61.60096991 28.16795571 -57.05810547 25.45239258 C-55.33751501 24.46700584 -53.61511215 23.48477036 -51.89013672 22.50708008 C-47.78950699 20.16816133 -43.69778786 17.81435719 -39.61279297 15.44824219 C-38.05019217 14.54333259 -36.48641135 13.64045722 -34.92138672 12.73974609 C-30.80622918 10.36651604 -26.72443933 7.94992082 -22.67138672 5.47192383 C-21.81561035 4.95637939 -20.95983398 4.44083496 -20.078125 3.90966797 C-18.43923157 2.92128281 -16.80814405 1.91979632 -15.18652344 0.90332031 C-14.4467627 0.46060791 -13.70700195 0.01789551 -12.94482422 -0.43823242 C-12.3011792 -0.83429687 -11.65753418 -1.23036133 -10.99438477 -1.63842773 C-6.97328595 -3.004834 -3.71769386 -1.7614622 0 0 Z " fill="#5DA4D1" transform="translate(95.87060546875,9.360107421875)"/>
<path d="M0 0 C2.1415475 1.07077375 3.31968903 2.31968903 5 4 C6.97653218 5.0206355 6.97653218 5.0206355 9 5.8125 C11.38502734 7.22860998 11.98590222 8.46475554 13 11 C10.20124258 9.92988687 7.66799721 8.809275 5.0625 7.3125 C1.28110949 5.69190407 -0.03952766 5.9621794 -4 7 C-6.8612518 8.36003145 -9.54308439 9.98276408 -12.25 11.625 C-13.93317201 12.62310739 -15.61679169 13.6204601 -17.30078125 14.6171875 C-18.20908691 15.15827148 -19.11739258 15.69935547 -20.05322266 16.25683594 C-25.48600424 19.47059406 -30.96537173 22.60387974 -36.4375 25.75 C-38.56151213 26.97341298 -40.68521809 28.19735768 -42.80859375 29.421875 C-43.82421387 30.00646484 -44.83983398 30.59105469 -45.88623047 31.19335938 C-48.05871484 32.45385682 -50.22388068 33.72701586 -52.38330078 35.00976562 C-53.46466309 35.65107422 -54.54602539 36.29238281 -55.66015625 36.953125 C-56.63734619 37.53739258 -57.61453613 38.12166016 -58.62133789 38.72363281 C-61 40 -61 40 -63 40 C-62.67 47.59 -62.34 55.18 -62 63 C-51.89034187 57.24311134 -41.78874464 51.47760275 -31.74755859 45.60205078 C-28.7164156 43.82941011 -25.68061967 42.0649345 -22.64453125 40.30078125 C-19.11947234 38.2496974 -15.61800282 36.16740006 -12.13671875 34.04296875 C-10.71621768 33.1951921 -9.29565014 32.34752681 -7.875 31.5 C-7.25455811 31.1078833 -6.63411621 30.7157666 -5.99487305 30.31176758 C-3.11301991 28.6173391 -1.46455101 27.92488917 1.875 28.46484375 C5.99135145 30.4870014 9.94185433 32.70594577 13.875 35.0625 C15.050625 35.75182617 15.050625 35.75182617 16.25 36.45507812 C20.49562893 38.97360888 20.49562893 38.97360888 22 40 C22 40.33 22 40.66 22 41 C20.35 41 18.7 41 17 41 C17 40.34 17 39.68 17 39 C13.6828589 37.5783681 10.55780196 36.60990891 7 36 C6.67 35.01 6.34 34.02 6 33 C4.35 32.67 2.7 32.34 1 32 C1 32.66 1 33.32 1 34 C0.34 34 -0.32 34 -1 34 C-1 33.01 -1 32.02 -1 31 C-1.804375 31.556875 -2.60875 32.11375 -3.4375 32.6875 C-6.79165264 34.93422457 -10.29400863 36.85030286 -13.8515625 38.75390625 C-17.42235746 40.82496733 -19.6881585 42.53223775 -22 46 C-23.66614608 46.04165365 -25.33385392 46.04165365 -27 46 C-27.66 46.66 -28.32 47.32 -29 48 C-29.99 48 -30.98 48 -32 48 C-32.495 48.99 -32.495 48.99 -33 50 C-34.66666667 50.66666667 -36.33333333 51.33333333 -38 52 C-39.5159375 53.0209375 -39.5159375 53.0209375 -41.0625 54.0625 C-44 56 -44 56 -46.3125 56.5625 C-46.869375 56.706875 -47.42625 56.85125 -48 57 C-48.33 57.99 -48.66 58.98 -49 60 C-50.33333333 60.33333333 -51.66666667 60.66666667 -53 61 C-53.825 61.66 -54.65 62.32 -55.5 63 C-57.8430415 64.8744332 -59.0417628 65.80278419 -62 66 C-65 64 -65 64 -65.6875 61.1875 C-67.32618546 44.97134184 -67.32618546 44.97134184 -64 39 C-61.609375 36.83203125 -61.609375 36.83203125 -58.75 34.8125 C-57.81671875 34.13832031 -56.8834375 33.46414062 -55.921875 32.76953125 C-53 31 -53 31 -49.703125 29.94921875 C-48.81109375 29.63597656 -47.9190625 29.32273437 -47 29 C-46.67 28.01 -46.34 27.02 -46 26 C-44.68 26.33 -43.36 26.66 -42 27 C-42 26.34 -42 25.68 -42 25 C-40.35 24.67 -38.7 24.34 -37 24 C-37 23.34 -37 22.68 -37 22 C-35.58957044 21.15615325 -34.17135868 20.32530504 -32.75 19.5 C-31.96109375 19.0359375 -31.1721875 18.571875 -30.359375 18.09375 C-28 17 -28 17 -24 17 C-24 16.34 -24 15.68 -24 15 C-21.35261084 13.5393715 -20.10551666 13 -17 13 C-17 12.34 -17 11.68 -17 11 C-16.34 10.67 -15.68 10.34 -15 10 C-13.86649466 7.98330173 -13.86649466 7.98330173 -13 6 C-11.68 6.66 -10.36 7.32 -9 8 C-9 7.34 -9 6.68 -9 6 C-8.01 6 -7.02 6 -6 6 C-6 5.34 -6 4.68 -6 4 C-4.36368108 2.95107762 -2.69514137 1.95093297 -1 1 C-0.67 0.67 -0.34 0.34 0 0 Z " fill="#2E86BD" transform="translate(89,26)"/>
<path d="M0 0 C4.0304302 2.35293991 6.81758041 4.66016163 8.68359375 9.05078125 C9.17859375 11.52578125 9.17859375 11.52578125 9.68359375 14.05078125 C-1.53640625 14.05078125 -12.75640625 14.05078125 -24.31640625 14.05078125 C-23.28287015 7.84956466 -22.58601332 6.32038832 -18.31640625 2.05078125 C-12.85208192 -1.76153805 -6.2019228 -2.54142874 0 0 Z " fill="#F8F8F9" transform="translate(715.31640625,97.94921875)"/>
<path d="M0 0 C4.36622449 1.75544105 8.27466106 4.02680566 12.3046875 6.44140625 C13.4803125 7.13073242 13.4803125 7.13073242 14.6796875 7.83398438 C18.92531643 10.35251513 18.92531643 10.35251513 20.4296875 11.37890625 C20.4296875 11.70890625 20.4296875 12.03890625 20.4296875 12.37890625 C18.7796875 12.37890625 17.1296875 12.37890625 15.4296875 12.37890625 C15.4296875 11.71890625 15.4296875 11.05890625 15.4296875 10.37890625 C12.1125464 8.95727435 8.98748946 7.98881516 5.4296875 7.37890625 C4.9346875 5.89390625 4.9346875 5.89390625 4.4296875 4.37890625 C2.7796875 4.04890625 1.1296875 3.71890625 -0.5703125 3.37890625 C-0.5703125 4.03890625 -0.5703125 4.69890625 -0.5703125 5.37890625 C-1.2303125 5.37890625 -1.8903125 5.37890625 -2.5703125 5.37890625 C-2.5703125 4.38890625 -2.5703125 3.39890625 -2.5703125 2.37890625 C-3.3746875 2.93578125 -4.1790625 3.49265625 -5.0078125 4.06640625 C-8.36196514 6.31313082 -11.86432113 8.22920911 -15.421875 10.1328125 C-18.99266996 12.20387358 -21.258471 13.911144 -23.5703125 17.37890625 C-25.23645858 17.4205599 -26.90416642 17.4205599 -28.5703125 17.37890625 C-29.2303125 18.03890625 -29.8903125 18.69890625 -30.5703125 19.37890625 C-31.5603125 19.37890625 -32.5503125 19.37890625 -33.5703125 19.37890625 C-33.9003125 20.03890625 -34.2303125 20.69890625 -34.5703125 21.37890625 C-36.23697917 22.04557292 -37.90364583 22.71223958 -39.5703125 23.37890625 C-41.08625 24.39984375 -41.08625 24.39984375 -42.6328125 25.44140625 C-45.5703125 27.37890625 -45.5703125 27.37890625 -47.8828125 27.94140625 C-48.4396875 28.08578125 -48.9965625 28.23015625 -49.5703125 28.37890625 C-49.9003125 29.36890625 -50.2303125 30.35890625 -50.5703125 31.37890625 C-51.90364583 31.71223958 -53.23697917 32.04557292 -54.5703125 32.37890625 C-55.3953125 33.03890625 -56.2203125 33.69890625 -57.0703125 34.37890625 C-59.39303683 36.23708571 -60.63225671 37.17628171 -63.5703125 37.37890625 C-64.2303125 36.71890625 -64.8903125 36.05890625 -65.5703125 35.37890625 C-64.46816406 34.77304688 -63.36601563 34.1671875 -62.23046875 33.54296875 C-53.94183039 28.97148577 -45.70764667 24.32853868 -37.56445312 19.50268555 C-30.61630147 15.39020434 -23.62655943 11.35062575 -16.6328125 7.31640625 C-16.04798096 6.97872223 -15.46314941 6.64103821 -14.8605957 6.29312134 C-2.79173911 -0.67459957 -2.79173911 -0.67459957 0 0 Z " fill="#2C6A9B" transform="translate(90.5703125,54.62109375)"/>
<path d="M0 0 C0.98887207 0.57596924 1.97774414 1.15193848 2.99658203 1.74536133 C4.68025879 2.71699219 4.68025879 2.71699219 6.39794922 3.70825195 C7.60021972 4.41442439 8.80236554 5.12080914 10.00439453 5.82739258 C11.24253652 6.54629261 12.48114923 7.26438251 13.72021484 7.98168945 C16.90040007 9.82564815 20.0741174 11.68044184 23.24621582 13.53826904 C26.26367196 15.30342318 29.28657496 17.05918774 32.30908203 18.81567383 C37.92173312 22.08040802 43.5281398 25.35564772 49.12939453 28.63989258 C46.12939453 29.63989258 46.12939453 29.63989258 43.12939453 29.63989258 C42.04658203 28.52614258 42.04658203 28.52614258 40.94189453 27.38989258 C38.14380128 24.65397918 35.98992887 23.42355419 32.51611328 21.81567383 C28.49209664 19.83330229 24.69984739 17.44870279 20.86376953 15.12817383 C18.53544685 13.86090105 16.71429241 13.10148148 14.12939453 12.63989258 C14.12939453 11.97989258 14.12939453 11.31989258 14.12939453 10.63989258 C13.07751953 10.26864258 13.07751953 10.26864258 12.00439453 9.88989258 C9.12939453 8.63989258 9.12939453 8.63989258 6.06689453 6.57739258 C3.56925363 4.93001241 2.02481208 4.08534143 -0.87060547 3.63989258 C-0.87060547 2.97989258 -0.87060547 2.31989258 -0.87060547 1.63989258 C-3.21594497 0.87033122 -3.21594497 0.87033122 -5.87060547 0.63989258 C-7.70608536 1.97367832 -7.70608536 1.97367832 -8.87060547 3.63989258 C-8.87060547 2.97989258 -8.87060547 2.31989258 -8.87060547 1.63989258 C-11.12316588 2.73906978 -13.3725872 3.84399468 -15.62060547 4.95239258 C-16.57193359 5.41548828 -16.57193359 5.41548828 -17.54248047 5.88793945 C-20.90208459 7.55024357 -23.96919468 9.25868423 -26.87060547 11.63989258 C-26.49817034 9.14937746 -26.21357013 7.9413854 -24.29174805 6.25195312 C-22.09829047 4.92573176 -19.90263898 3.60966672 -17.68310547 2.32739258 C-16.92707031 1.86010742 -16.17103516 1.39282227 -15.39208984 0.91137695 C-14.64894531 0.4750293 -13.90580078 0.03868164 -13.14013672 -0.41088867 C-12.12850464 -1.00897339 -12.12850464 -1.00897339 -11.09643555 -1.61914062 C-7.00632182 -2.98071737 -3.78562619 -1.79364888 0 0 Z " fill="#2D9CD7" transform="translate(95.87060546875,9.360107421875)"/>
<path d="M0 0 C0 0.66 0 1.32 0 2 C-2.62214328 3.50519387 -5.24744208 5.00431319 -7.875 6.5 C-8.62136719 6.92925781 -9.36773437 7.35851563 -10.13671875 7.80078125 C-10.85214844 8.20683594 -11.56757812 8.61289062 -12.3046875 9.03125 C-12.96452637 9.40830078 -13.62436523 9.78535156 -14.30419922 10.17382812 C-16 11 -16 11 -18 11 C-18 18.92 -18 26.84 -18 35 C-18.66 35 -19.32 35 -20 35 C-21.45113038 27.20017423 -22.98325909 17.15095474 -19 10 C-16.609375 7.83203125 -16.609375 7.83203125 -13.75 5.8125 C-12.81671875 5.13832031 -11.8834375 4.46414062 -10.921875 3.76953125 C-7.48471883 1.68793801 -4.08400174 0 0 0 Z " fill="#3E8CBD" transform="translate(44,55)"/>
<path d="M0 0 C4.17318493 0.59310921 7.13031541 2.00783255 10.75390625 4.1328125 C11.85669922 4.77476563 12.95949219 5.41671875 14.09570312 6.078125 C15.25140951 6.76023468 16.40700815 7.44252696 17.5625 8.125 C18.67947266 8.77726562 19.79644531 9.42953125 20.94726562 10.1015625 C23.18423972 11.40873345 25.41944734 12.7189323 27.65283203 14.03222656 C32.76063814 17.03506516 37.88070632 20.01679359 43 23 C40 24 40 24 37 24 C36.278125 23.2575 35.55625 22.515 34.8125 21.75 C32.01440675 19.0140866 29.86053434 17.78366161 26.38671875 16.17578125 C22.36270211 14.19340971 18.57045286 11.80881022 14.734375 9.48828125 C12.40605232 8.22100848 10.58489788 7.46158891 8 7 C8 6.34 8 5.68 8 5 C6.8553125 4.5978125 6.8553125 4.5978125 5.6875 4.1875 C3.12619116 3.05575888 1.80307062 2.08776599 0 0 Z " fill="#356B96" transform="translate(102,15)"/>
<path d="M0 0 C0.66 0.33 1.32 0.66 2 1 C-0.31277261 4.46915891 -1.24942203 4.55091306 -5 6 C-6.5159375 7.0209375 -6.5159375 7.0209375 -8.0625 8.0625 C-11 10 -11 10 -13.3125 10.5625 C-13.869375 10.706875 -14.42625 10.85125 -15 11 C-15.33 11.99 -15.66 12.98 -16 14 C-17.33333333 14.33333333 -18.66666667 14.66666667 -20 15 C-20.825 15.66 -21.65 16.32 -22.5 17 C-24.82272433 18.85817946 -26.06194421 19.79737546 -29 20 C-29.66 19.34 -30.32 18.68 -31 18 C-29.85144531 17.3709375 -28.70289062 16.741875 -27.51953125 16.09375 C-25.95010497 15.22992178 -24.38112565 14.36528122 -22.8125 13.5 C-21.99910156 13.05164795 -21.18570313 12.6032959 -20.34765625 12.14135742 C-14.22043835 8.73875244 -8.28079752 5.12072061 -2.40625 1.30078125 C-1.6121875 0.87152344 -0.818125 0.44226563 0 0 Z " fill="#346F9D" transform="translate(56,72)"/>
<path d="M0 0 C1.4391134 0.28359887 2.87625518 0.57721399 4.3125 0.875 C5.11300781 1.03742187 5.91351563 1.19984375 6.73828125 1.3671875 C9 2 9 2 12 4 C11.67 4.66 11.34 5.32 11 6 C12.32 6 13.64 6 15 6 C15 6.66 15 7.32 15 8 C16.32 7.67 17.64 7.34 19 7 C18.67 7.99 18.34 8.98 18 10 C18.845625 10.2475 19.69125 10.495 20.5625 10.75 C24.38427474 12.13973627 27.51868063 13.91120838 31 16 C30.34 16.66 29.68 17.32 29 18 C25.66508924 16.10693176 22.3323695 14.2100375 19 12.3125 C18.06542969 11.78205078 17.13085938 11.25160156 16.16796875 10.70507812 C10.69922403 7.58827606 5.26794069 4.44776779 0 1 C0 0.67 0 0.34 0 0 Z " fill="#35628D" transform="translate(102,37)"/>
<path d="M0 0 C4.36622449 1.75544105 8.27466106 4.02680566 12.3046875 6.44140625 C13.0884375 6.90095703 13.8721875 7.36050781 14.6796875 7.83398438 C18.92531643 10.35251513 18.92531643 10.35251513 20.4296875 11.37890625 C20.4296875 11.70890625 20.4296875 12.03890625 20.4296875 12.37890625 C18.7796875 12.37890625 17.1296875 12.37890625 15.4296875 12.37890625 C15.4296875 11.71890625 15.4296875 11.05890625 15.4296875 10.37890625 C12.1125464 8.95727435 8.98748946 7.98881516 5.4296875 7.37890625 C5.0996875 6.38890625 4.7696875 5.39890625 4.4296875 4.37890625 C2.7796875 4.04890625 1.1296875 3.71890625 -0.5703125 3.37890625 C-0.5703125 4.03890625 -0.5703125 4.69890625 -0.5703125 5.37890625 C-1.2303125 5.37890625 -1.8903125 5.37890625 -2.5703125 5.37890625 C-2.5703125 4.38890625 -2.5703125 3.39890625 -2.5703125 2.37890625 C-3.5603125 2.70890625 -4.5503125 3.03890625 -5.5703125 3.37890625 C-5.2403125 2.38890625 -4.9103125 1.39890625 -4.5703125 0.37890625 C-2.5703125 -0.62109375 -2.5703125 -0.62109375 0 0 Z " fill="#2E6694" transform="translate(90.5703125,54.62109375)"/>
<path d="M0 0 C2.0625 0.4375 2.0625 0.4375 4 1 C3.01 1.495 3.01 1.495 2 2 C1.68758545 4.71446979 1.48663408 7.33909361 1.375 10.0625 C1.33632812 10.82111328 1.29765625 11.57972656 1.2578125 12.36132812 C1.16326438 14.24047195 1.08053244 16.12020336 1 18 C0.34 18 -0.32 18 -1 18 C-1.02684312 15.18743719 -1.04676188 12.37512759 -1.0625 9.5625 C-1.07087891 8.76005859 -1.07925781 7.95761719 -1.08789062 7.13085938 C-1.0965143 5.08704779 -1.0522815 3.04316098 -1 1 C-0.67 0.67 -0.34 0.34 0 0 Z " fill="#2491CE" transform="translate(6,54)"/>
<path d="M0 0 C-0.48218994 0.85609863 -0.48218994 0.85609863 -0.97412109 1.72949219 C-2.04769839 4.10556758 -2.30319209 5.74114872 -2.4140625 8.328125 C-2.45273437 9.12734375 -2.49140625 9.9265625 -2.53125 10.75 C-2.5621875 11.575 -2.593125 12.4 -2.625 13.25 C-2.66367187 14.09046875 -2.70234375 14.9309375 -2.7421875 15.796875 C-2.83615836 17.86423382 -2.91915564 19.93208627 -3 22 C-1.68 22.33 -0.36 22.66 1 23 C-0.65 23.66 -2.3 24.32 -4 25 C-4 17.08 -4 9.16 -4 1 C-2 0 -2 0 0 0 Z " fill="#E5F8FC" transform="translate(30,65)"/>
<path d="M0 0 C4.7871428 0.57665391 8.25128824 2.64082996 12.3125 5.0625 C12.95767578 5.43955078 13.60285156 5.81660156 14.26757812 6.20507812 C15.84878152 7.13037493 17.4249146 8.06432681 19 9 C18.67 9.66 18.34 10.32 18 11 C16.27473958 9.95833333 14.54947917 8.91666667 12.82421875 7.875 C10.88638074 6.78376001 10.88638074 6.78376001 8 7 C8 6.34 8 5.68 8 5 C6.8553125 4.5978125 6.8553125 4.5978125 5.6875 4.1875 C3.12619116 3.05575888 1.80307062 2.08776599 0 0 Z " fill="#3482B4" transform="translate(102,15)"/>
<path d="M0 0 C4.59808129 0.53894425 7.86784369 1.76571528 11.875 4.0625 C12.84179688 4.61035156 13.80859375 5.15820312 14.8046875 5.72265625 C15.89136719 6.35494141 15.89136719 6.35494141 17 7 C13.28272326 8.13583456 11.52948291 7.66670026 8 6 C8 5.34 8 4.68 8 4 C3.545 3.01 3.545 3.01 -1 2 C-0.67 1.34 -0.34 0.68 0 0 Z " fill="#3696CB" transform="translate(87,7)"/>
<path d="M0 0 C1.4391134 0.28359887 2.87625518 0.57721399 4.3125 0.875 C5.11300781 1.03742187 5.91351563 1.19984375 6.73828125 1.3671875 C9 2 9 2 12 4 C11.67 4.66 11.34 5.32 11 6 C6.48986609 5.46939601 3.61621781 3.69113883 0 1 C0 0.67 0 0.34 0 0 Z " fill="#3472A3" transform="translate(102,37)"/>
<path d="M0 0 C0.99 0.33 1.98 0.66 3 1 C2.88557539 2.60495567 2.75805306 4.20898119 2.625 5.8125 C2.55539063 6.70582031 2.48578125 7.59914063 2.4140625 8.51953125 C2 11 2 11 0 14 C0 9.38 0 4.76 0 0 Z " fill="#293456" transform="translate(89,105)"/>
<path d="M0 0 C1.485 0.99 1.485 0.99 3 2 C2.51855059 6.81449408 2.1991413 9.60171741 0 14 C0 9.38 0 4.76 0 0 Z " fill="#293455" transform="translate(153,67)"/>
<path d="M0 0 C0.33 0.99 0.66 1.98 1 3 C-1.66666667 4.33333333 -4.33333333 5.66666667 -7 7 C-7.66 6.34 -8.32 5.68 -9 5 C-6.03 3.35 -3.06 1.7 0 0 Z " fill="#3B74A0" transform="translate(84,56)"/>
<path d="M0 0 C0.66 0.33 1.32 0.66 2 1 C2.66 1.268125 3.32 1.53625 4 1.8125 C6.38502734 3.22860998 6.98590222 4.46475554 8 7 C4.40608886 5.66511872 1.24509304 4.03977277 -2 2 C-1.34 1.34 -0.68 0.68 0 0 Z " fill="#2C79AC" transform="translate(94,30)"/>
<path d="M0 0 C1.32 0.99 2.64 1.98 4 3 C3.67 3.99 3.34 4.98 3 6 C-0.465 4.02 -0.465 4.02 -4 2 C-2.68 1.34 -1.36 0.68 0 0 Z " fill="#2D476E" transform="translate(144,58)"/>
<path d="M0 0 C0.33 0 0.66 0 1 0 C1.16820551 1.93736701 1.33451095 3.87489906 1.5 5.8125 C1.5928125 6.89144531 1.685625 7.97039062 1.78125 9.08203125 C2 12 2 12 2 15 C1.34 15 0.68 15 0 15 C0 10.05 0 5.1 0 0 Z " fill="#252134" transform="translate(89,186)"/>
<path d="M0 0 C3.94859783 0.5640854 6.70879046 1.7431706 10 4 C10 4.33 10 4.66 10 5 C8.35 5 6.7 5 5 5 C5 4.34 5 3.68 5 3 C2.525 2.01 2.525 2.01 0 1 C0 0.67 0 0.34 0 0 Z " fill="#335983" transform="translate(101,62)"/>
<path d="M0 0 C-4.95 2.475 -4.95 2.475 -10 5 C-10 4.34 -10 3.68 -10 3 C-9.34 3 -8.68 3 -8 3 C-8 2.34 -8 1.68 -8 1 C-4.59449725 -1.06762667 -4.18836538 -1.04709135 0 0 Z " fill="#D7F7FE" transform="translate(80,12)"/>
<path d="M0 0 C0.99 0 1.98 0 3 0 C3 0.66 3 1.32 3 2 C0.6875 3.6875 0.6875 3.6875 -2 5 C-2.99 4.67 -3.98 4.34 -5 4 C-4.01 3.01 -3.02 2.02 -2 1 C-1.34 1.33 -0.68 1.66 0 2 C0 1.34 0 0.68 0 0 Z " fill="#2C273F" transform="translate(140,169)"/>
</svg>
